<mxfile host="Electron" modified="2024-05-29T15:22:10.283Z" agent="Mozilla/5.0 (Windows NT 10.0; Win64; x64) AppleWebKit/537.36 (KHTML, like Gecko) draw.io/22.1.21 Chrome/120.0.6099.109 Electron/28.1.0 Safari/537.36" etag="ieAIk8CrjIiXYTWUPMeF" version="22.1.21" type="device">
  <diagram name="Page-1" id="T-2H2aQdHrZzVJMEs0BF">
    <mxGraphModel dx="1098" dy="820" grid="1" gridSize="10" guides="1" tooltips="1" connect="1" arrows="1" fold="1" page="1" pageScale="1" pageWidth="827" pageHeight="1169" math="0" shadow="0">
      <root>
        <mxCell id="0" />
        <mxCell id="1" parent="0" />
        <mxCell id="4Qg2N8t3_j5z-wnxJr81-1" value="" style="rounded=0;whiteSpace=wrap;html=1;" parent="1" vertex="1">
          <mxGeometry x="7" y="10" width="820" height="130" as="geometry" />
        </mxCell>
        <mxCell id="4Qg2N8t3_j5z-wnxJr81-2" value="" style="rounded=0;html=1;jettySize=auto;orthogonalLoop=1;fontSize=11;endArrow=block;endFill=0;endSize=8;strokeWidth=1;shadow=0;labelBackgroundColor=none;edgeStyle=orthogonalEdgeStyle;" parent="1" edge="1">
          <mxGeometry relative="1" as="geometry">
            <mxPoint x="670" y="720" as="targetPoint" />
          </mxGeometry>
        </mxCell>
        <mxCell id="4Qg2N8t3_j5z-wnxJr81-3" value="N" style="rounded=0;html=1;jettySize=auto;orthogonalLoop=1;fontSize=11;endArrow=block;endFill=0;endSize=8;strokeWidth=1;shadow=0;labelBackgroundColor=none;edgeStyle=orthogonalEdgeStyle;" parent="1" source="4Qg2N8t3_j5z-wnxJr81-13" target="4Qg2N8t3_j5z-wnxJr81-8" edge="1">
          <mxGeometry x="-0.2" y="10" relative="1" as="geometry">
            <mxPoint as="offset" />
          </mxGeometry>
        </mxCell>
        <mxCell id="4Qg2N8t3_j5z-wnxJr81-4" value="1" style="edgeStyle=orthogonalEdgeStyle;rounded=0;html=1;jettySize=auto;orthogonalLoop=1;fontSize=11;endArrow=block;endFill=0;endSize=8;strokeWidth=1;shadow=0;labelBackgroundColor=none;exitX=1;exitY=0.5;exitDx=0;exitDy=0;" parent="1" source="4Qg2N8t3_j5z-wnxJr81-12" target="4Qg2N8t3_j5z-wnxJr81-5" edge="1">
          <mxGeometry y="10" relative="1" as="geometry">
            <mxPoint as="offset" />
          </mxGeometry>
        </mxCell>
        <mxCell id="4Qg2N8t3_j5z-wnxJr81-5" value="Duplicato" style="rounded=1;whiteSpace=wrap;html=1;fontSize=12;glass=0;strokeWidth=1;shadow=0;" parent="1" vertex="1">
          <mxGeometry x="557" y="325" width="120" height="40" as="geometry" />
        </mxCell>
        <mxCell id="4Qg2N8t3_j5z-wnxJr81-6" value="1" style="rounded=0;html=1;jettySize=auto;orthogonalLoop=1;fontSize=11;endArrow=block;endFill=0;endSize=8;strokeWidth=1;shadow=0;labelBackgroundColor=none;edgeStyle=orthogonalEdgeStyle;" parent="1" source="4Qg2N8t3_j5z-wnxJr81-8" target="4Qg2N8t3_j5z-wnxJr81-9" edge="1">
          <mxGeometry x="0.1429" y="10" relative="1" as="geometry">
            <mxPoint as="offset" />
          </mxGeometry>
        </mxCell>
        <mxCell id="4Qg2N8t3_j5z-wnxJr81-7" value="1" style="edgeStyle=orthogonalEdgeStyle;rounded=0;html=1;jettySize=auto;orthogonalLoop=1;fontSize=11;endArrow=block;endFill=0;endSize=8;strokeWidth=1;shadow=0;labelBackgroundColor=none;" parent="1" source="4Qg2N8t3_j5z-wnxJr81-16" target="4Qg2N8t3_j5z-wnxJr81-10" edge="1">
          <mxGeometry y="10" relative="1" as="geometry">
            <mxPoint as="offset" />
            <mxPoint x="267" y="145" as="sourcePoint" />
          </mxGeometry>
        </mxCell>
        <mxCell id="4Qg2N8t3_j5z-wnxJr81-8" value="Compra" style="rhombus;whiteSpace=wrap;html=1;shadow=0;fontFamily=Helvetica;fontSize=12;align=center;strokeWidth=1;spacing=6;spacingTop=-4;" parent="1" vertex="1">
          <mxGeometry x="357" y="35" width="100" height="80" as="geometry" />
        </mxCell>
        <mxCell id="4Qg2N8t3_j5z-wnxJr81-9" value="Cliente" style="rounded=1;whiteSpace=wrap;html=1;fontSize=12;glass=0;strokeWidth=1;shadow=0;" parent="1" vertex="1">
          <mxGeometry x="177" y="55" width="120" height="40" as="geometry" />
        </mxCell>
        <mxCell id="4Qg2N8t3_j5z-wnxJr81-10" value="Fatura" style="rounded=1;whiteSpace=wrap;html=1;fontSize=12;glass=0;strokeWidth=1;shadow=0;" parent="1" vertex="1">
          <mxGeometry x="207" y="325" width="120" height="40" as="geometry" />
        </mxCell>
        <mxCell id="4Qg2N8t3_j5z-wnxJr81-11" value="" style="edgeStyle=orthogonalEdgeStyle;rounded=0;html=1;jettySize=auto;orthogonalLoop=1;fontSize=11;endArrow=block;endFill=0;endSize=8;strokeWidth=1;shadow=0;labelBackgroundColor=none;exitX=1;exitY=0.5;exitDx=0;exitDy=0;" parent="1" source="4Qg2N8t3_j5z-wnxJr81-10" target="4Qg2N8t3_j5z-wnxJr81-12" edge="1">
          <mxGeometry y="10" relative="1" as="geometry">
            <mxPoint as="offset" />
            <mxPoint x="337" y="245" as="sourcePoint" />
            <mxPoint x="487" y="245" as="targetPoint" />
          </mxGeometry>
        </mxCell>
        <mxCell id="4Qg2N8t3_j5z-wnxJr81-12" value="gera" style="rhombus;whiteSpace=wrap;html=1;shadow=0;fontFamily=Helvetica;fontSize=12;align=center;strokeWidth=1;spacing=6;spacingTop=-4;" parent="1" vertex="1">
          <mxGeometry x="377" y="305" width="100" height="80" as="geometry" />
        </mxCell>
        <mxCell id="4Qg2N8t3_j5z-wnxJr81-13" value="Produto" style="rounded=1;whiteSpace=wrap;html=1;fontSize=12;glass=0;strokeWidth=1;shadow=0;" parent="1" vertex="1">
          <mxGeometry x="517" y="55" width="120" height="40" as="geometry" />
        </mxCell>
        <mxCell id="4Qg2N8t3_j5z-wnxJr81-14" value="&lt;font style=&quot;font-size: 14px;&quot;&gt;Pedido&lt;/font&gt;" style="text;strokeColor=none;align=center;fillColor=none;html=1;verticalAlign=middle;whiteSpace=wrap;rounded=0;" parent="1" vertex="1">
          <mxGeometry x="7" y="15" width="70" height="30" as="geometry" />
        </mxCell>
        <mxCell id="4Qg2N8t3_j5z-wnxJr81-15" value="" style="edgeStyle=orthogonalEdgeStyle;rounded=0;html=1;jettySize=auto;orthogonalLoop=1;fontSize=11;endArrow=block;endFill=0;endSize=8;strokeWidth=1;shadow=0;labelBackgroundColor=none;" parent="1" target="4Qg2N8t3_j5z-wnxJr81-16" edge="1">
          <mxGeometry y="10" relative="1" as="geometry">
            <mxPoint as="offset" />
            <mxPoint x="267" y="145" as="sourcePoint" />
            <mxPoint x="267" y="275" as="targetPoint" />
          </mxGeometry>
        </mxCell>
        <mxCell id="4Qg2N8t3_j5z-wnxJr81-16" value="Emite" style="rhombus;whiteSpace=wrap;html=1;shadow=0;fontFamily=Helvetica;fontSize=12;align=center;strokeWidth=1;spacing=6;spacingTop=-4;" parent="1" vertex="1">
          <mxGeometry x="217" y="195" width="100" height="80" as="geometry" />
        </mxCell>
        <mxCell id="4Qg2N8t3_j5z-wnxJr81-17" value="N" style="text;strokeColor=none;align=center;fillColor=none;html=1;verticalAlign=middle;whiteSpace=wrap;rounded=0;" parent="1" vertex="1">
          <mxGeometry x="327" y="315" width="60" height="30" as="geometry" />
        </mxCell>
        <mxCell id="4Qg2N8t3_j5z-wnxJr81-18" value="1" style="text;strokeColor=none;align=center;fillColor=none;html=1;verticalAlign=middle;whiteSpace=wrap;rounded=0;" parent="1" vertex="1">
          <mxGeometry x="247" y="155" width="60" height="30" as="geometry" />
        </mxCell>
        <mxCell id="4Qg2N8t3_j5z-wnxJr81-19" value="Cliente" style="swimlane;whiteSpace=wrap;html=1;" parent="1" vertex="1">
          <mxGeometry x="7" y="400" width="133" height="150" as="geometry">
            <mxRectangle x="7" y="400" width="140" height="30" as="alternateBounds" />
          </mxGeometry>
        </mxCell>
        <mxCell id="4Qg2N8t3_j5z-wnxJr81-20" value="- Cód_Cliente" style="text;html=1;align=center;verticalAlign=middle;resizable=0;points=[];autosize=1;strokeColor=none;fillColor=none;" parent="4Qg2N8t3_j5z-wnxJr81-19" vertex="1">
          <mxGeometry x="-7" y="20" width="100" height="30" as="geometry" />
        </mxCell>
        <mxCell id="4Qg2N8t3_j5z-wnxJr81-21" value="- Nome" style="text;html=1;align=center;verticalAlign=middle;resizable=0;points=[];autosize=1;strokeColor=none;fillColor=none;" parent="4Qg2N8t3_j5z-wnxJr81-19" vertex="1">
          <mxGeometry x="-7" y="40" width="60" height="30" as="geometry" />
        </mxCell>
        <mxCell id="4Qg2N8t3_j5z-wnxJr81-22" value="- Endereço" style="text;strokeColor=none;align=center;fillColor=none;html=1;verticalAlign=middle;whiteSpace=wrap;rounded=0;" parent="4Qg2N8t3_j5z-wnxJr81-19" vertex="1">
          <mxGeometry y="60" width="70" height="30" as="geometry" />
        </mxCell>
        <mxCell id="4Qg2N8t3_j5z-wnxJr81-23" value="- Ped. de venda" style="text;strokeColor=none;align=center;fillColor=none;html=1;verticalAlign=middle;whiteSpace=wrap;rounded=0;" parent="4Qg2N8t3_j5z-wnxJr81-19" vertex="1">
          <mxGeometry y="80" width="100" height="30" as="geometry" />
        </mxCell>
        <mxCell id="4Qg2N8t3_j5z-wnxJr81-24" value="- Faturas" style="text;strokeColor=none;align=center;fillColor=none;html=1;verticalAlign=middle;whiteSpace=wrap;rounded=0;" parent="4Qg2N8t3_j5z-wnxJr81-19" vertex="1">
          <mxGeometry y="100" width="60" height="30" as="geometry" />
        </mxCell>
        <mxCell id="4Qg2N8t3_j5z-wnxJr81-25" value="- Duplicatas" style="text;strokeColor=none;align=center;fillColor=none;html=1;verticalAlign=middle;whiteSpace=wrap;rounded=0;" parent="4Qg2N8t3_j5z-wnxJr81-19" vertex="1">
          <mxGeometry x="-7" y="120" width="85" height="30" as="geometry" />
        </mxCell>
        <mxCell id="4Qg2N8t3_j5z-wnxJr81-26" value="Produtos" style="swimlane;whiteSpace=wrap;html=1;" parent="1" vertex="1">
          <mxGeometry x="157" y="400" width="150" height="130" as="geometry">
            <mxRectangle x="7" y="400" width="140" height="30" as="alternateBounds" />
          </mxGeometry>
        </mxCell>
        <mxCell id="4Qg2N8t3_j5z-wnxJr81-27" value="- Cód_Produto" style="text;html=1;align=center;verticalAlign=middle;resizable=0;points=[];autosize=1;strokeColor=none;fillColor=none;" parent="4Qg2N8t3_j5z-wnxJr81-26" vertex="1">
          <mxGeometry x="-7" y="20" width="100" height="30" as="geometry" />
        </mxCell>
        <mxCell id="4Qg2N8t3_j5z-wnxJr81-28" value="- Nome" style="text;html=1;align=center;verticalAlign=middle;resizable=0;points=[];autosize=1;strokeColor=none;fillColor=none;" parent="4Qg2N8t3_j5z-wnxJr81-26" vertex="1">
          <mxGeometry x="-7" y="40" width="60" height="30" as="geometry" />
        </mxCell>
        <mxCell id="4Qg2N8t3_j5z-wnxJr81-29" value="- Custo" style="text;strokeColor=none;align=center;fillColor=none;html=1;verticalAlign=middle;whiteSpace=wrap;rounded=0;" parent="4Qg2N8t3_j5z-wnxJr81-26" vertex="1">
          <mxGeometry x="-2" y="60" width="50" height="30" as="geometry" />
        </mxCell>
        <mxCell id="4Qg2N8t3_j5z-wnxJr81-30" value="- Preço" style="text;strokeColor=none;align=center;fillColor=none;html=1;verticalAlign=middle;whiteSpace=wrap;rounded=0;" parent="4Qg2N8t3_j5z-wnxJr81-26" vertex="1">
          <mxGeometry x="-27" y="80" width="100" height="30" as="geometry" />
        </mxCell>
        <mxCell id="4Qg2N8t3_j5z-wnxJr81-31" value="- Família_Prod" style="text;strokeColor=none;align=center;fillColor=none;html=1;verticalAlign=middle;whiteSpace=wrap;rounded=0;" parent="4Qg2N8t3_j5z-wnxJr81-26" vertex="1">
          <mxGeometry x="-17.25" y="100" width="120.5" height="30" as="geometry" />
        </mxCell>
        <mxCell id="4Qg2N8t3_j5z-wnxJr81-32" value="Duplicatas" style="swimlane;whiteSpace=wrap;html=1;" parent="1" vertex="1">
          <mxGeometry x="324" y="400" width="133" height="110" as="geometry">
            <mxRectangle x="7" y="400" width="140" height="30" as="alternateBounds" />
          </mxGeometry>
        </mxCell>
        <mxCell id="4Qg2N8t3_j5z-wnxJr81-33" value="- Número_Dup" style="text;html=1;align=center;verticalAlign=middle;resizable=0;points=[];autosize=1;strokeColor=none;fillColor=none;" parent="4Qg2N8t3_j5z-wnxJr81-32" vertex="1">
          <mxGeometry x="-7" y="20" width="100" height="30" as="geometry" />
        </mxCell>
        <mxCell id="4Qg2N8t3_j5z-wnxJr81-34" value="- Data_Vencimento" style="text;html=1;align=center;verticalAlign=middle;resizable=0;points=[];autosize=1;strokeColor=none;fillColor=none;" parent="4Qg2N8t3_j5z-wnxJr81-32" vertex="1">
          <mxGeometry x="-7" y="40" width="130" height="30" as="geometry" />
        </mxCell>
        <mxCell id="4Qg2N8t3_j5z-wnxJr81-35" value="- Cliente" style="text;strokeColor=none;align=center;fillColor=none;html=1;verticalAlign=middle;whiteSpace=wrap;rounded=0;" parent="4Qg2N8t3_j5z-wnxJr81-32" vertex="1">
          <mxGeometry x="-7" y="60" width="70" height="30" as="geometry" />
        </mxCell>
        <mxCell id="4Qg2N8t3_j5z-wnxJr81-36" value="- Portador" style="text;strokeColor=none;align=center;fillColor=none;html=1;verticalAlign=middle;whiteSpace=wrap;rounded=0;" parent="4Qg2N8t3_j5z-wnxJr81-32" vertex="1">
          <mxGeometry x="-20" y="80" width="100" height="30" as="geometry" />
        </mxCell>
      </root>
    </mxGraphModel>
  </diagram>
</mxfile>
